<svg width="10" height="10" viewBox="0 0 10 10" fill="none" xmlns="http://www.w3.org/2000/svg">
<path d="M1.72916 7.43403L1.72222 7.44097C1.62847 7.23611 1.56944 7.00347 1.54514 6.74653C1.56944 7 1.63541 7.22917 1.72916 7.43403Z" fill="white"/>
<path d="M3.95835 4.4375C4.41475 4.4375 4.78474 4.06751 4.78474 3.61111C4.78474 3.15471 4.41475 2.78472 3.95835 2.78472C3.50194 2.78472 3.13196 3.15471 3.13196 3.61111C3.13196 4.06751 3.50194 4.4375 3.95835 4.4375Z" fill="white"/>
<path d="M6.45489 1.52778H3.54516C2.28127 1.52778 1.5278 2.28125 1.5278 3.54514V6.45486C1.5278 6.83333 1.59377 7.1632 1.72225 7.44097C2.02086 8.1007 2.65975 8.47222 3.54516 8.47222H6.45489C7.71877 8.47222 8.47225 7.71875 8.47225 6.45486V5.65972V3.54514C8.47225 2.28125 7.71877 1.52778 6.45489 1.52778ZM7.90627 5.17361C7.63544 4.94097 7.19794 4.94097 6.92711 5.17361L5.48266 6.4132C5.21183 6.64583 4.77433 6.64583 4.5035 6.4132L4.38544 6.31597C4.13891 6.1007 3.74655 6.07986 3.46877 6.26736L2.17016 7.13889C2.09377 6.94445 2.04863 6.71875 2.04863 6.45486V3.54514C2.04863 2.56597 2.566 2.04861 3.54516 2.04861H6.45489C7.43405 2.04861 7.95141 2.56597 7.95141 3.54514V5.21181L7.90627 5.17361Z" fill="white"/>
</svg>
