<svg width="12" height="12" viewBox="0 0 12 12" fill="none" xmlns="http://www.w3.org/2000/svg">
<path fill-rule="evenodd" clip-rule="evenodd" d="M6.47138 1.75696C7.51278 0.715562 9.20122 0.715563 10.2426 1.75696C11.2841 2.79841 11.2838 4.48696 10.2425 5.52831L8.8284 6.94241C8.56805 7.20276 8.14594 7.20276 7.88559 6.94241C7.62525 6.68206 7.62525 6.25995 7.88559 5.9996L9.29969 4.5855C9.82044 4.06475 9.82046 3.22042 9.29981 2.69977C8.77911 2.17907 7.93489 2.17907 7.41419 2.69977L5.99998 4.11398C5.73963 4.37433 5.31752 4.37433 5.05717 4.11398C4.79682 3.85363 4.79682 3.43152 5.05717 3.17117L6.47138 1.75696ZM8.35697 3.64259C8.61732 3.90294 8.61732 4.32505 8.35697 4.5854L4.58574 8.35663C4.32539 8.61698 3.90328 8.61698 3.64293 8.35663C3.38258 8.09628 3.38258 7.67417 3.64293 7.41382L7.41416 3.64259C7.67451 3.38224 8.09662 3.38224 8.35697 3.64259ZM4.11436 5.05679C4.37471 5.31714 4.37471 5.73925 4.11436 5.9996L2.70015 7.41381C2.17945 7.93451 2.17945 8.77873 2.70015 9.29943C3.22079 9.82008 4.06513 9.82007 4.58588 9.29932L5.99998 7.88522C6.26033 7.62487 6.68244 7.62487 6.94279 7.88522C7.20314 8.14557 7.20314 8.56768 6.94279 8.82803L5.52869 10.2421C4.48734 11.2835 2.79878 11.2837 1.75734 10.2422C0.715938 9.20084 0.715938 7.5124 1.75734 6.47101L3.17155 5.05679C3.4319 4.79644 3.85401 4.79644 4.11436 5.05679Z" fill="#777E91"/>
</svg>
