<svg width="16" height="16" viewBox="0 0 16 16" fill="none" xmlns="http://www.w3.org/2000/svg">
<path fill-rule="evenodd" clip-rule="evenodd" d="M6.69464 0.0750474C12.1405 -0.796289 16.8026 3.85734 15.8568 9.31387L15.8568 9.31424C15.2758 12.655 12.5924 15.3466 9.23657 15.8586C7.1296 16.1977 5.15432 15.6489 3.60595 14.6347L2.42532 15.1993C1.3893 15.711 0.150255 14.7043 0.575191 13.5674C0.575375 13.5669 0.575559 13.5664 0.575744 13.5659L1.13114 12.0663C0.30155 10.6029 -0.133721 8.83291 0.0707073 6.99305L0.0717158 6.98398L0.0717778 6.98399C0.508675 3.48881 3.2683 0.65822 6.6881 0.076127L6.69463 0.0750149L6.69464 0.0750474ZM6.90857 1.39111C11.4612 0.664852 15.3302 4.54355 14.5432 9.08578C14.0577 11.8773 11.8092 14.1185 9.033 14.5409L9.033 14.5409L9.02714 14.5418C7.15534 14.8438 5.39865 14.302 4.05874 13.3275C3.86078 13.1835 3.59982 13.1596 3.37899 13.2653L1.84566 13.9986L1.83732 14.0027C1.83692 14.0024 1.8365 14.0022 1.83608 14.002L2.4918 12.2316C2.56319 12.0388 2.54167 11.8239 2.43347 11.6491C1.63912 10.3659 1.21454 8.78242 1.39538 7.14484C1.76017 4.24319 4.06468 1.87669 6.90857 1.39111Z" fill="#777E91"/>
<path d="M5.33332 8.66667C5.70151 8.66667 5.99999 8.36819 5.99999 8C5.99999 7.63181 5.70151 7.33333 5.33332 7.33333C4.96513 7.33333 4.66666 7.63181 4.66666 8C4.66666 8.36819 4.96513 8.66667 5.33332 8.66667Z" fill="#777E91"/>
<path d="M7.99998 8.66667C8.36817 8.66667 8.66665 8.36819 8.66665 8C8.66665 7.63181 8.36817 7.33333 7.99998 7.33333C7.63179 7.33333 7.33331 7.63181 7.33331 8C7.33331 8.36819 7.63179 8.66667 7.99998 8.66667Z" fill="#777E91"/>
<path d="M10.6667 8.66667C11.0349 8.66667 11.3333 8.36819 11.3333 8C11.3333 7.63181 11.0349 7.33333 10.6667 7.33333C10.2985 7.33333 10 7.63181 10 8C10 8.36819 10.2985 8.66667 10.6667 8.66667Z" fill="#777E91"/>
</svg>
