<svg width="16" height="16" viewBox="0 0 16 16" fill="none" xmlns="http://www.w3.org/2000/svg">
<path fill-rule="evenodd" clip-rule="evenodd" d="M7.99998 13.3333C10.9455 13.3333 13.3333 10.9455 13.3333 8C13.3333 5.05448 10.9455 2.66666 7.99998 2.66666C5.05446 2.66666 2.66665 5.05448 2.66665 8C2.66665 10.9455 5.05446 13.3333 7.99998 13.3333ZM7.99998 14.6667C11.6819 14.6667 14.6666 11.6819 14.6666 8C14.6666 4.3181 11.6819 1.33333 7.99998 1.33333C4.31808 1.33333 1.33331 4.3181 1.33331 8C1.33331 11.6819 4.31808 14.6667 7.99998 14.6667Z" fill="#F90430"/>
<path fill-rule="evenodd" clip-rule="evenodd" d="M7.99998 4.66667C7.63179 4.66667 7.33331 4.96515 7.33331 5.33334C7.33331 5.70153 7.63179 6.00001 7.99998 6.00001C8.36817 6.00001 8.66665 5.70153 8.66665 5.33334C8.66665 4.96515 8.36817 4.66667 7.99998 4.66667ZM7.99998 7.33334C7.63179 7.33334 7.33331 7.63182 7.33331 8V10.6667C7.33331 11.0349 7.63179 11.3333 7.99998 11.3333C8.36817 11.3333 8.66665 11.0349 8.66665 10.6667V8C8.66665 7.63182 8.36817 7.33334 7.99998 7.33334Z" fill="#F90430"/>
</svg>
